/* XPM */
static char * bullet_xpm[] = {
"16 16 28 1",
" 	c None",
".	c #2F2F2F",
"+	c #434243",
"@	c #414040",
"#	c #454546",
"$	c #4D4D4D",
"%	c #565657",
"&	c #616061",
"*	c #6B6B6B",
"=	c #3B3B3B",
"-	c #363636",
";	c #3E3F3F",
">	c #494949",
",	c #535353",
"'	c #5F5F5F",
")	c #696969",
"!	c #3B3C3C",
"~	c #373737",
"{	c #3F3F3F",
"]	c #545453",
"^	c #696A69",
"/	c #444444",
"(	c #424142",
"_	c #464647",
":	c #4E4E4E",
"<	c #575757",
"[	c #616162",
"}	c #6B6B6C",
"                ",
"                ",
"                ",
"                ",
"                ",
"        ........",
"        .+@#$%&*",
"        .=-;>,')",
"        .!~{>]'^",
"        ./(_:<[}",
"        ........",
"                ",
"                ",
"                ",
"                ",
"                "};
