/* XPM */
static char * closefcs_xpm[] = {
"21 21 53 1",
" 	c #1E1E1E",
".	c #7E7E7E",
"+	c #6D6D6D",
"@	c #707070",
"#	c #5D5D5D",
"$	c #646464",
"%	c #505050",
"&	c #484848",
"*	c #5B5B5B",
"=	c #454545",
"-	c #DADADA",
";	c #464646",
">	c #5F5F5F",
",	c #4A4A4A",
"'	c #DBDBDB",
")	c #606060",
"!	c #4B4B4B",
"~	c #626262",
"{	c #4D4D4D",
"]	c #474848",
"^	c #484748",
"/	c #484847",
"(	c #5D5D5C",
"_	c #565657",
":	c #414041",
"<	c #414040",
"[	c #404040",
"}	c #404041",
"|	c #404140",
"1	c #414140",
"2	c #414141",
"3	c #404141",
"4	c #565757",
"5	c #50504F",
"6	c #393839",
"7	c #393939",
"8	c #383939",
"9	c #4A4A49",
"0	c #313231",
"a	c #323132",
"b	c #313131",
"c	c #313132",
"d	c #323232",
"e	c #313232",
"f	c #4A4949",
"g	c #434443",
"h	c #444343",
"i	c #434343",
"j	c #434344",
"k	c #585858",
"l	c #4C4C4C",
"m	c #4F4F4F",
"n	c #333333",
" .++++++++++++++++++.",
" @##################@",
" $%%%%%%%%%%%%%%%%%%$",
" #&&&&&&&&&&&&&&&&&&#",
" *==================*",
" *=====--------=====*",
" *;;;;;--;;;;--;;;;;*",
" #&&&&&--&&&&--&&&&&#",
" >,,,,,'',,,,'',,,,,>",
" )!!!!!''''''''!!!!!)",
" ~{{{{{{{{{{{{{{{{{{~",
" #&]]&&&&&^/&/&&&]&&(",
" _::<[}|}1<21[3[<3<34",
" 5677777777777777687%",
" 90abcdecdbabceaeebbf",
" ghiiiiiiiijiiiijiiii",
"$                    ",
"k~$$$$$$$$$$$$$$$$$$$",
"lmmmmmmmmmmmmmmmmmmmm",
"222222222222222222222",
"nnnnnnnnnnnnnnnnnnnnn"};
