/* XPM */
static char * maxpr_xpm[] = {
"21 21 36 1",
" 	c #424242",
".	c #626262",
"+	c #373737",
"@	c #4D4D4D",
"#	c #2F2F2F",
"$	c #3E3E3E",
"%	c #2A2A2A",
"&	c #353535",
"*	c #282828",
"=	c #323232",
"-	c #333333",
";	c #999999",
">	c #9A9A9A",
",	c #2B2B2B",
"'	c #9B9B9B",
")	c #383838",
"!	c #2D2D2D",
"~	c #3A3A3A",
"{	c #9C9C9C",
"]	c #2E2E2E",
"^	c #3C3C3C",
"/	c #303030",
"(	c #3F3F3F",
"_	c #3F3F3E",
":	c #3E3F3E",
"<	c #3F3E3F",
"[	c #3E3E3F",
"}	c #3E3F3F",
"|	c #3F3E3E",
"1	c #343434",
"2	c #646464",
"3	c #363636",
"4	c #585858",
"5	c #4C4C4C",
"6	c #4F4F4F",
"7	c #414141",
" ....................",
"+@@@@@@@@@@@@@@@@@@@@",
"#$$$$$$$$$$$$$$$$$$$$",
"%&&&&&&&&&&&&&&&&&&&&",
"*====================",
"*====================",
"*-------;;;;;;-------",
"%&&&&&&&&&&&>>&&&&&&&",
",+++++++++++''+++++++",
",)))))))))))'')))))))",
"!~~~~~~~~~~~{{~~~~~~~",
"]^^^^^^^^^^^^^^^^^^^^",
"/((((((((((((((((((((",
"/((((((((((((((((((((",
"/_:<$[(}[($<$[}<}}$$|",
"1$$$$$$$$$$$$$$$$$$$$",
"23-------------------",
"4.2222222222222222222",
"566666666666666666666",
"777777777777777777777",
"---------------------"};
