/* XPM */
static char * maxufcs_xpm[] = {
"21 21 44 1",
" 	c #1E1E1E",
".	c #636363",
"+	c #5A5A5A",
"@	c #525252",
"#	c #484848",
"$	c #444444",
"%	c #393939",
"&	c #3C3C3C",
"*	c #303030",
"=	c #2D2D2D",
"-	c #818181",
";	c #3A3A3A",
">	c #2E2E2E",
",	c #828282",
"'	c #838383",
")	c #3E3E3E",
"!	c #323232",
"~	c #848484",
"{	c #3F3F3F",
"]	c #343434",
"^	c #858585",
"/	c #414141",
"(	c #363636",
"_	c #434343",
":	c #383838",
"<	c #454545",
"[	c #444443",
"}	c #393839",
"|	c #383939",
"1	c #3E3E3D",
"2	c #313231",
"3	c #323132",
"4	c #313131",
"5	c #313132",
"6	c #313232",
"7	c #3E3D3D",
"8	c #363736",
"9	c #373636",
"0	c #363637",
"a	c #4B4B4B",
"b	c #494949",
"c	c #373737",
"d	c #282828",
"e	c #191919",
" .++++++++++++++++++.",
" @##################@",
" $%%%%%%%%%%%%%%%%%%$",
" &******************&",
" %==================%",
" %======------======%",
" ;>>>>>>>>>>,,>>>>>>;",
" &**********''******&",
" )!!!!!!!!!!~~!!!!!!)",
" {]]]]]]]]]]^^]]]]]]{",
" /((((((((((((((((((/",
" _::::::::::::::::::_",
" <;;;;;;;;;;;;;;;;;;<",
" [}%%%%%%%%%%%%%%}|%$",
" 12345!65!43456366447",
" 89((((((((0((((0((((",
"a                    ",
"/baaaaaaaaaaaaaaaaaaa",
"]cccccccccccccccccccc",
"ddddddddddddddddddddd",
"eeeeeeeeeeeeeeeeeeeee"};
