/* XPM */
static char * menuiconfcs_xpm[] = {
"21 21 70 1",
" 	c #767676",
".	c #6F6F6F",
"+	c #3B3B3B",
"@	c #818181",
"#	c #727272",
"$	c #6D6D6D",
"%	c #646464",
"&	c #5C5C5C",
"*	c #363636",
"=	c #707070",
"-	c #626262",
";	c #5D5D5D",
">	c #545554",
",	c #4D4D4D",
"'	c #4C4C4C",
")	c #4D4C4D",
"!	c #4C4D4D",
"~	c #4C4D4C",
"{	c #4D4D4C",
"]	c #545555",
"^	c #313131",
"/	c #545454",
"(	c #505050",
"_	c #4B4B4B",
":	c #424242",
"<	c #2E2E2E",
"[	c #595959",
"}	c #484848",
"|	c #454646",
"1	c #3C3C3D",
"2	c #3D3D3D",
"3	c #3D3D3C",
"4	c #3C3D3D",
"5	c #3C3D3C",
"6	c #454645",
"7	c #2D2D2D",
"8	c #555555",
"9	c #494949",
"0	c #454545",
"a	c #444444",
"b	c #393939",
"c	c #575757",
"d	c #4A4A4A",
"e	c #464646",
"f	c #424142",
"g	c #383838",
"h	c #393838",
"i	c #414241",
"j	c #414141",
"k	c #2F2F2F",
"l	c #5B5B5B",
"m	c #4E4E4E",
"n	c #3F3F3F",
"o	c #4F4F4F",
"p	c #3E3E3E",
"q	c #353535",
"r	c #303030",
"s	c #5F5F5F",
"t	c #515151",
"u	c #616161",
"v	c #535353",
"w	c #333333",
"x	c #636363",
"y	c #323232",
"z	c #565656",
"A	c #525252",
"B	c #666666",
"C	c #676767",
"D	c #686868",
"E	c #585858",
" ....... +@#$$$$$$$$$",
"%&&&&&&&%*=-;;;;;;;;;",
">,')!~{)]^-/(((((((((",
"_:::::::_<['}}}}}}}}}",
"|12343526789000000000",
"a+++++++a789000000000",
":bbbbbbb:7cdeeeeeeeee",
"fghhhgggi<['}}}}}}}}}",
"jgggggggjklmddddddddd",
"n*******nk&o_________",
"pqqqqqqqprst,,,,,,,,,",
"pqqqqqqqp^uvooooooooo",
"2wwwwwww2^x8ttttttttt",
"+++++++++y%zAAAAAAAAA",
"yyyyyyyyywBcvvvvvvvvv",
"CCCCCCCCCDC[888888888",
"EEEEEEEEEEE8/////////",
"AAAAAAAAAAAAAAAAAAAAA",
"_____________________",
"jjjjjjjjjjjjjjjjjjjjj",
"wwwwwwwwwwwwwwwwwwwww"};
