/* XPM */
static char * menuiconufcs_xpm[] = {
"21 21 48 1",
" 	c #626262",
".	c #5A5A5A",
"+	c #353535",
"@	c #6D6D6D",
"#	c #5F5F5F",
"$	c #505050",
"%	c #484848",
"&	c #2E2E2E",
"*	c #595959",
"=	c #4C4C4C",
"-	c #424242",
";	c #393939",
">	c #282828",
",	c #474747",
"'	c #3C3C3C",
")	c #3A3A3A",
"!	c #303030",
"~	c #252525",
"{	c #3D3D3D",
"]	c #333333",
"^	c #373737",
"/	c #2D2D2D",
"(	c #242424",
"_	c #383838",
":	c #313131",
"<	c #323232",
"[	c #262626",
"}	c #3F3F3F",
"|	c #343434",
"1	c #272727",
"2	c #414141",
"3	c #363636",
"4	c #444444",
"5	c #464646",
"6	c #3B3B3B",
"7	c #434343",
"8	c #292929",
"9	c #494949",
"0	c #454545",
"a	c #2A2A2A",
"b	c #4B4B4B",
"c	c #404040",
"d	c #2B2B2B",
"e	c #4D4D4D",
"f	c #4E4E4E",
"g	c #4F4F4F",
"h	c #3E3E3E",
"i	c #191919",
" ....... +@#.........",
"$%%%%%%%$&*=%%%%%%%%%",
"-;;;;;;;->,';;;;;;;;;",
")!!!!!!!)~{]!!!!!!!!!",
"^///////^(;!/////////",
"^///////^(;!/////////",
"_&&&&&&&_~):&&&&&&&&&",
")!!!!!!!)~{]!!!!!!!!!",
"'<<<<<<<'[}+<<<<<<<<<",
"{|||||||{12^|||||||||",
"}3333333}14;333333333",
"2_______2>56_________",
"7)))))))789{)))))))))",
"000000000abc'''''''''",
"aaaaaaaaade2{{{{{{{{{",
"fffffffffgf-}}}}}}}}}",
"----------2}hhhhhhhhh",
"'''''''''''''''''''''",
"|||||||||||||||||||||",
">>>>>>>>>>>>>>>>>>>>>",
"iiiiiiiiiiiiiiiiiiiii"};
