/* XPM */
static char * menuiconpr_xpm[] = {
"21 21 55 1",
" 	c #656565",
".	c #626262",
"+	c #5C5C5C",
"@	c #818181",
"#	c #727272",
"$	c #6D6D6D",
"%	c #4F4F4F",
"&	c #4D4D4D",
"*	c #4B4B4B",
"=	c #707070",
"-	c #5D5D5D",
";	c #3F3F3F",
">	c #3D3D3D",
",	c #545454",
"'	c #505050",
")	c #363636",
"!	c #343434",
"~	c #353535",
"{	c #595959",
"]	c #4C4C4C",
"^	c #484848",
"/	c #323232",
"(	c #303030",
"_	c #555555",
":	c #494949",
"<	c #454545",
"[	c #2F2F2F",
"}	c #333333",
"|	c #575757",
"1	c #4A4A4A",
"2	c #464646",
"3	c #373737",
"4	c #5B5B5B",
"5	c #4E4E4E",
"6	c #383838",
"7	c #3A3A3A",
"8	c #5F5F5F",
"9	c #515151",
"0	c #393939",
"a	c #3C3C3C",
"b	c #616161",
"c	c #535353",
"d	c #3B3B3B",
"e	c #3E3E3E",
"f	c #636363",
"g	c #646464",
"h	c #565656",
"i	c #525252",
"j	c #404040",
"k	c #444444",
"l	c #666666",
"m	c #676767",
"n	c #686868",
"o	c #585858",
"p	c #414141",
" ....... +@#$$$$$$$$$",
"%&&&&&&&%*=.---------",
";>>>>>>>;>.,'''''''''",
")!!!!!!!)~{]^^^^^^^^^",
"/(((((((//_:<<<<<<<<<",
"/[[[[[[[//_:<<<<<<<<<",
"}(((((((}!|1222222222",
"!///////!~{]^^^^^^^^^",
")}}}}}}})345111111111",
"3!!!!!!!36+%*********",
"6)))))))6789&&&&&&&&&",
"033333330abc%%%%%%%%%",
"d6666666def_999999999",
"aaaaaaaaa;ghiiiiiiiii",
"jjjjjjjjjkl|ccccccccc",
"mmmmmmmmmnm{_________",
"ooooooooooo_,,,,,,,,,",
"iiiiiiiiiiiiiiiiiiiii",
"*********************",
"ppppppppppppppppppppp",
"}}}}}}}}}}}}}}}}}}}}}"};
