/* XPM */
static char * minfcs_xpm[] = {
"21 21 65 1",
" 	c #878787",
".	c #1E1E1E",
"+	c #7E7E7E",
"@	c #6D6D6D",
"#	c #757575",
"$	c #707070",
"%	c #5D5D5D",
"&	c #666666",
"*	c #646464",
"=	c #505050",
"-	c #484848",
";	c #5A5A5A",
">	c #5B5B5B",
",	c #454545",
"'	c #DADADA",
")	c #464646",
"!	c #606060",
"~	c #5F5F5F",
"{	c #4A4A4A",
"]	c #DBDBDB",
"^	c #616161",
"/	c #4B4B4B",
"(	c #636363",
"_	c #626262",
":	c #4D4D4D",
"<	c #656565",
"[	c #474848",
"}	c #484748",
"|	c #484847",
"1	c #5D5D5C",
"2	c #676767",
"3	c #565657",
"4	c #414041",
"5	c #414040",
"6	c #404040",
"7	c #404041",
"8	c #404140",
"9	c #414140",
"0	c #414141",
"a	c #404141",
"b	c #565757",
"c	c #696969",
"d	c #50504F",
"e	c #393839",
"f	c #393939",
"g	c #383939",
"h	c #494A49",
"i	c #323132",
"j	c #313131",
"k	c #313132",
"l	c #323232",
"m	c #313232",
"n	c #4A4949",
"o	c #595959",
"p	c #5C5C5C",
"q	c #434343",
"r	c #434344",
"s	c #545454",
"t	c #555555",
"u	c #525252",
"v	c #535353",
"w	c #585858",
"x	c #4C4C4C",
"y	c #4F4F4F",
"z	c #333333",
" .+@@@@@@@@@@@@@@@@@+",
"#.$%%%%%%%%%%%%%%%%%$",
"&.*=================*",
"%.%-----------------%",
";.>,,,,,,,,,,,,,,,,,>",
";.>,,,,,,,'',,,,,,,,>",
">.>)))))))''))))))))>",
"%.%-------''--------%",
"!.~{{{{{{{]]{{{{{{{{~",
"^.!///////]]]]]]////!",
"(._:::::::::::::::::_",
"<.%-[[-----}||---[--1",
"2.344567879506a65a5ab",
"c.defffffffffffffegf=",
"&(.hijklmkljikmimmjjn",
"op(.qqqqqqqqrqqqrqqqq",
"st;_.................",
"uuvw_****************",
"///xyyyyyyyyyyyyyyyyy",
"000000000000000000000",
"zzzzzzzzzzzzzzzzzzzzz"};
