/* XPM */
static char * minpr_xpm[] = {
"21 21 54 1",
" 	c #878787",
".	c #424242",
"+	c #626262",
"@	c #757575",
"#	c #373737",
"$	c #4D4D4D",
"%	c #666666",
"&	c #2F2F2F",
"*	c #3E3E3E",
"=	c #5D5D5D",
"-	c #2A2A2A",
";	c #353535",
">	c #5A5A5A",
",	c #282828",
"'	c #323232",
")	c #5B5B5B",
"!	c #333333",
"~	c #999999",
"{	c #9A9A9A",
"]	c #606060",
"^	c #2B2B2B",
"/	c #9B9B9B",
"(	c #616161",
"_	c #383838",
":	c #636363",
"<	c #2D2D2D",
"[	c #3A3A3A",
"}	c #9C9C9C",
"|	c #656565",
"1	c #2E2E2E",
"2	c #3C3C3C",
"3	c #676767",
"4	c #303030",
"5	c #3F3F3F",
"6	c #696969",
"7	c #343434",
"8	c #3F403F",
"9	c #3F3E3F",
"0	c #3E3E3F",
"a	c #3E3F3F",
"b	c #3F3E3E",
"c	c #595959",
"d	c #5C5C5C",
"e	c #363636",
"f	c #545454",
"g	c #555555",
"h	c #525252",
"i	c #535353",
"j	c #585858",
"k	c #646464",
"l	c #4B4B4B",
"m	c #4C4C4C",
"n	c #4F4F4F",
"o	c #414141",
" .+++++++++++++++++++",
"@#$$$$$$$$$$$$$$$$$$$",
"%&*******************",
"=-;;;;;;;;;;;;;;;;;;;",
">,'''''''''''''''''''",
">,'''''''''''''''''''",
"),!!!!!!!!~~!!!!!!!!!",
"=-;;;;;;;;{{;;;;;;;;;",
"]^########//#########",
"(^________//_________",
":<[[[[[[[[}}}}}}[[[[[",
"|12222222222222222222",
"345555555555555555555",
"6'5555555555555555555",
"%:789*05a05*9*0aaa**b",
"cd:e5****************",
"fg>+e!!!!!!!#!!!!!!!!",
"hhij+kkkkkkkkkkkkkkkk",
"lllmnnnnnnnnnnnnnnnnn",
"ooooooooooooooooooooo",
"!!!!!!!!!!!!!!!!!!!!!"};
