/* XPM */
static char * minufcs_xpm[] = {
"21 21 51 1",
" 	c #727272",
".	c #1E1E1E",
"+	c #636363",
"@	c #5A5A5A",
"#	c #5D5D5D",
"$	c #525252",
"%	c #484848",
"&	c #4B4B4B",
"*	c #444444",
"=	c #393939",
"-	c #404040",
";	c #3C3C3C",
">	c #303030",
",	c #2D2D2D",
"'	c #818181",
")	c #3D3D3D",
"!	c #3A3A3A",
"~	c #2E2E2E",
"{	c #828282",
"]	c #838383",
"^	c #434343",
"/	c #3E3E3E",
"(	c #323232",
"_	c #848484",
":	c #454545",
"<	c #3F3F3F",
"[	c #343434",
"}	c #858585",
"|	c #474747",
"1	c #414141",
"2	c #363636",
"3	c #4A4A4A",
"4	c #383838",
"5	c #4C4C4C",
"6	c #4F4F4F",
"7	c #444443",
"8	c #393839",
"9	c #383939",
"0	c #4D4D4D",
"a	c #3D3E3D",
"b	c #323132",
"c	c #313131",
"d	c #313132",
"e	c #313232",
"f	c #3E3D3D",
"g	c #424242",
"h	c #363637",
"i	c #494949",
"j	c #373737",
"k	c #282828",
"l	c #191919",
" .+@@@@@@@@@@@@@@@@@+",
"#.$%%%%%%%%%%%%%%%%%$",
"&.*=================*",
"-.;>>>>>>>>>>>>>>>>>;",
";.=,,,,,,,,,,,,,,,,,=",
";.=,,,,,,,'',,,,,,,,=",
").!~~~~~~~{{~~~~~~~~!",
"-.;>>>>>>>]]>>>>>>>>;",
"^./(((((((__((((((((/",
":.<[[[[[[[}}}}}}[[[[<",
"|.1222222222222222221",
"3.^44444444444444444^",
"5.:!!!!!!!!!!!!!!!!!:",
"6.78=============89=*",
"03.abcd(ed(cbdebeeccf",
"g*3.22222222h222h2222",
"/<^i.................",
";;)1i&&&&&&&&&&&&&&&&",
"[[[[jjjjjjjjjjjjjjjjj",
"kkkkkkkkkkkkkkkkkkkkk",
"lllllllllllllllllllll"};
