/* XPM */
static char * shadepr_xpm[] = {
"21 21 40 1",
" 	c #6D6D6D",
".	c #707070",
"+	c #797979",
"@	c #555555",
"#	c #676767",
"$	c #5D5D5D",
"%	c #606060",
"&	c #696969",
"*	c #474747",
"=	c #545454",
"-	c #505050",
";	c #535353",
">	c #5B5B5B",
",	c #3C3C3C",
"'	c #464646",
")	c #484848",
"!	c #4A4A4A",
"~	c #525252",
"{	c #353535",
"]	c #3D3D3D",
"^	c #454545",
"/	c #4F4F4F",
"(	c #333333",
"_	c #3A3A3A",
":	c #343434",
"<	c #3B3B3B",
"[	c #4D4D4D",
"}	c #383838",
"|	c #3E3E3E",
"1	c #4B4B4B",
"2	c #4E4E4E",
"3	c #3E3E3D",
"4	c #3E3D3E",
"5	c #3D3D3E",
"6	c #3D3E3E",
"7	c #3D3E3D",
"8	c #585858",
"9	c #5A5A5A",
"0	c #515151",
"a	c #414141",
"  .+@###########@+.  ",
"$$%&*===========*&%$$",
"--;>,''''''''''',>;--",
"))!~{]]]]]]]]]]]{~!))",
"^^*/(___________(/*^^",
"^^*/(___________(/*^^",
"'')-:<<<<<<<<<<<:-)''",
"))!~{]]]]]]]]]]]{~!))",
"!![=}|||||||||||}=[!!",
"112@_345563|75|4_@211",
"[[[[8___________8[[[[",
"////~99999999999~////",
"00000===========00000",
"~~~~~~~~~~~~~~~~~~~~~",
";;;;;;;;;;;;;;;;;;;;;",
"@@@@@@@@@@@@@@@@@@@@@",
"=====================",
"~~~~~~~~~~~~~~~~~~~~~",
"111111111111111111111",
"aaaaaaaaaaaaaaaaaaaaa",
"((((((((((((((((((((("};
