/* XPM */
static char * stickpr_xpm[] = {
"21 21 56 1",
" 	c #6D6D6D",
".	c #70706D",
"+	c #7E7D6D",
"@	c #9E9E6D",
"#	c #C9C96D",
"$	c #E9E96D",
"%	c #F6F66D",
"&	c #FAFA6D",
"*	c #F7F76D",
"=	c #5D5D5D",
"-	c #615F5D",
";	c #444444",
">	c #505050",
",	c #7E7E7E",
"'	c #484848",
")	c #3D3D3D",
"!	c #707070",
"~	c #454545",
"{	c #373737",
"]	c #646464",
"^	c #333333",
"/	c #464646",
"(	c #313131",
"_	c #5B5B5B",
":	c #4A4A4A",
"<	c #323232",
"[	c #575758",
"}	c #414241",
"|	c #414141",
"1	c #424141",
"2	c #424241",
"3	c #575757",
"4	c #4B4B4B",
"5	c #4E4E4E",
"6	c #3C3C3C",
"7	c #4D4D4D",
"8	c #343434",
"9	c #363737",
"0	c #363637",
"a	c #363636",
"b	c #373637",
"c	c #464546",
"d	c #4F4F4F",
"e	c #353535",
"f	c #3D3D3C",
"g	c #3D3C3D",
"h	c #3C3C3D",
"i	c #3C3D3D",
"j	c #3C3D3C",
"k	c #515151",
"l	c #585858",
"m	c #525252",
"n	c #5A5A5A",
"o	c #535353",
"p	c #555555",
"q	c #545454",
"    .+@#$%&*$#@+.    ",
"====-;;;;;;;;;;;-====",
">>>>;,         ,;>>>>",
"'''')!=========!)''''",
"~~~~{]>>>>>>>>>]{~~~~",
"~~~~^='''''''''=^~~~~",
"////(_~~~~~~~~~_(////",
"''''(_~~~~~~~~~_(''''",
"::::<[}||112|||3<::::",
"4444^56666666665^4444",
"77778/900{aba09c87777",
"ddddefghhif)jh)gedddd",
"kkkkleeeeeeeeeeelkkkk",
"mmmmmnnnnnnnnnnnmmmmm",
"ooooooooooooooooooooo",
"ppppppppppppppppppppp",
"qqqqqqqqqqqqqqqqqqqqq",
"mmmmmmmmmmmmmmmmmmmmm",
"444444444444444444444",
"|||||||||||||||||||||",
"^^^^^^^^^^^^^^^^^^^^^"};
