/* XPM */
static char * stickufcs_xpm[] = {
"21 21 41 1",
" 	c #5A5A5A",
".	c #5D5D5D",
"+	c #656565",
"@	c #3B3B3B",
"#	c #6D6D6D",
"$	c #484848",
"%	c #4A4A4A",
"&	c #525252",
"*	c #333333",
"=	c #393939",
"-	c #424242",
";	c #2C2C2C",
">	c #505050",
",	c #303030",
"'	c #323232",
")	c #383838",
"!	c #272727",
"~	c #2D2D2D",
"{	c #2F2F2F",
"]	c #343434",
"^	c #262626",
"/	c #454545",
"(	c #2E2E2E",
"_	c #353535",
":	c #464646",
"<	c #3A3A3A",
"[	c #282828",
"}	c #464546",
"|	c #363636",
"1	c #3C3C3C",
"2	c #2A2A2A",
"3	c #3D3D3C",
"4	c #3D3C3D",
"5	c #3C3C3D",
"6	c #3C3D3D",
"7	c #3D3D3D",
"8	c #3C3D3C",
"9	c #3E3E3E",
"0	c #414141",
"a	c #3F3F3F",
"b	c #191919",
"  .+@#         #@+.  ",
"$$%&*.$$$$$$$$$.*&%$$",
"==@-;>=========>;-@==",
",,')!$,,,,,,,,,$!)',,",
"~~{]^/~~~~~~~~~/^]{~~",
"~~{]^/~~~~~~~~~/^]{~~",
"((,_^:(((((((((:^_,((",
",,')!$,,,,,,,,,$!)',,",
"'']<[:{{{{{{{{{}[<]''",
"]]|123455637857421|]]",
"||||9222222222229||||",
"))))<00000000000<))))",
"<<<<<11111111111<<<<<",
"111111111111111111111",
"777777777777777777777",
"aaaaaaaaaaaaaaaaaaaaa",
"999999999999999999999",
"111111111111111111111",
"]]]]]]]]]]]]]]]]]]]]]",
"[[[[[[[[[[[[[[[[[[[[[",
"bbbbbbbbbbbbbbbbbbbbb"};
