/* XPM */
static char * stuckfcs_xpm[] = {
"21 21 73 1",
" 	c #6D6D6D",
".	c #70706D",
"+	c #7E7D6D",
"@	c #9E9E6D",
"#	c #C9C96D",
"$	c #E9E96D",
"%	c #F6F66D",
"&	c #FAFA6D",
"*	c #F7F76D",
"=	c #5D5D5D",
"-	c #615F5D",
";	c #6E695D",
">	c #8E845D",
",	c #B8A75D",
"'	c #D8C25D",
")	c #E6CF5D",
"!	c #E9D05D",
"~	c #D9C35D",
"{	c #505050",
"]	c #535150",
"^	c #5E5850",
"/	c #776850",
"(	c #998050",
"_	c #B29050",
":	c #BE9850",
"<	c #C09A50",
"[	c #B39050",
"}	c #484848",
"|	c #494948",
"1	c #3A3A3A",
"2	c #454545",
"3	c #444444",
"4	c #7E7E7E",
"5	c #3D3D3D",
"6	c #707070",
"7	c #464646",
"8	c #373737",
"9	c #646464",
"0	c #333333",
"a	c #4A4A4A",
"b	c #313131",
"c	c #5B5B5B",
"d	c #4B4B4B",
"e	c #4D4D4D",
"f	c #323232",
"g	c #575758",
"h	c #414241",
"i	c #414141",
"j	c #424141",
"k	c #424241",
"l	c #575757",
"m	c #4F4F4F",
"n	c #4E4E4E",
"o	c #3C3C3C",
"p	c #515151",
"q	c #343434",
"r	c #363737",
"s	c #363637",
"t	c #363636",
"u	c #373637",
"v	c #464546",
"w	c #525252",
"x	c #353535",
"y	c #3D3D3C",
"z	c #3D3C3D",
"A	c #3C3C3D",
"B	c #3C3D3D",
"C	c #3C3D3C",
"D	c #535353",
"E	c #585858",
"F	c #555555",
"G	c #5A5A5A",
"H	c #545454",
"    .+@#$%&*$#@+.    ",
"====-;>,')!)~,>;-====",
"{{{{]^/(_:<:[(/^]{{{{",
"}}}}|11111111111|}}}}",
"222234         432222",
"222256=========652222",
"777789{{{{{{{{{987777",
"}}}}0=}}}}}}}}}=0}}}}",
"aaaabc222222222cbaaaa",
"ddddbc222222222cbdddd",
"eeeefghiijjkiiilfeeee",
"mmmm0nooooooooon0mmmm",
"ppppq7rss8tutsrvqpppp",
"wwwwxyzAABy5CA5zxwwww",
"DDDDExxxxxxxxxxxEDDDD",
"FFFFFGGGGGGGGGGGFFFFF",
"HHHHHHHHHHHHHHHHHHHHH",
"wwwwwwwwwwwwwwwwwwwww",
"ddddddddddddddddddddd",
"iiiiiiiiiiiiiiiiiiiii",
"000000000000000000000"};
