/* XPM */
static char * stuckufcs_xpm[] = {
"21 21 52 1",
" 	c #5A5A5A",
".	c #5E5C5A",
"+	c #6D685A",
"@	c #92865A",
"#	c #C2AB5A",
"$	c #E6C95A",
"%	c #F5D35A",
"&	c #F9D65A",
"*	c #F6D45A",
"=	c #484848",
"-	c #4C4A48",
";	c #5B5148",
">	c #7F6648",
",	c #AF8148",
"'	c #D39648",
")	c #E3A148",
"!	c #E7A148",
"~	c #D49748",
"{	c #393939",
"]	c #3C3A39",
"^	c #493E39",
"/	c #654A39",
"(	c #8B5B39",
"_	c #A86639",
":	c #B56C39",
"<	c #B86D39",
"[	c #A96639",
"}	c #303030",
"|	c #323030",
"1	c #3A3A3A",
"2	c #2D2D2D",
"3	c #3B3B3B",
"4	c #636363",
"5	c #333333",
"6	c #525252",
"7	c #2E2E2E",
"8	c #2C2C2C",
"9	c #444444",
"0	c #272727",
"a	c #3C3C3C",
"b	c #323232",
"c	c #262626",
"d	c #343434",
"e	c #363636",
"f	c #383838",
"g	c #282828",
"h	c #3E3E3E",
"i	c #2A2A2A",
"j	c #3F3F3F",
"k	c #3D3D3D",
"l	c #414141",
"m	c #191919",
"    .+@#$%&*$#@+.    ",
"====-;>,')!)~,>;-====",
"{{{{]^/(_:<:[(/^]{{{{",
"}}}}|11111111111|}}}}",
"222234         432222",
"222256=========652222",
"777789{{{{{{{{{987777",
"}}}}0a}}}}}}}}}a0}}}}",
"bbbbc{222222222{cbbbb",
"ddddc{222222222{cdddd",
"eeeec17777777771ceeee",
"ffff0a}}}}}}}}}a0ffff",
"1111ghbbbbbbbbbhg1111",
"aaaaijjjjjjjjjjjiaaaa",
"kkkkhiiiiiiiiiiihkkkk",
"jjjjjllllllllllljjjjj",
"hhhhhhhhhhhhhhhhhhhhh",
"aaaaaaaaaaaaaaaaaaaaa",
"ddddddddddddddddddddd",
"ggggggggggggggggggggg",
"mmmmmmmmmmmmmmmmmmmmm"};
