/* XPM */
static char * tbarufcs_xpm[] = {
"21 21 17 1",
" 	c #5A5A5A",
".	c #484848",
"+	c #393939",
"@	c #303030",
"#	c #2D2D2D",
"$	c #2E2E2E",
"%	c #323232",
"&	c #343434",
"*	c #363636",
"=	c #383838",
"-	c #3A3A3A",
";	c #3C3C3C",
">	c #3D3D3D",
",	c #3F3F3F",
"'	c #3E3E3E",
")	c #282828",
"!	c #191919",
"                     ",
".....................",
"+++++++++++++++++++++",
"@@@@@@@@@@@@@@@@@@@@@",
"#####################",
"#####################",
"$$$$$$$$$$$$$$$$$$$$$",
"@@@@@@@@@@@@@@@@@@@@@",
"%%%%%%%%%%%%%%%%%%%%%",
"&&&&&&&&&&&&&&&&&&&&&",
"*********************",
"=====================",
"---------------------",
";;;;;;;;;;;;;;;;;;;;;",
">>>>>>>>>>>>>>>>>>>>>",
",,,,,,,,,,,,,,,,,,,,,",
"'''''''''''''''''''''",
";;;;;;;;;;;;;;;;;;;;;",
"&&&&&&&&&&&&&&&&&&&&&",
")))))))))))))))))))))",
"!!!!!!!!!!!!!!!!!!!!!"};
