/* XPM */
static char * unshadefcs_xpm[] = {
"21 21 51 1",
" 	c #6D6D6D",
".	c #707070",
"+	c #797979",
"@	c #444444",
"#	c #7E7E7E",
"$	c #5D5D5D",
"%	c #606060",
"&	c #696969",
"*	c #3D3D3D",
"=	c #505050",
"-	c #535353",
";	c #5B5B5B",
">	c #373737",
",	c #646464",
"'	c #484848",
")	c #4A4A4A",
"!	c #525252",
"~	c #333333",
"{	c #454545",
"]	c #474747",
"^	c #4F4F4F",
"/	c #313131",
"(	c #464646",
"_	c #323232",
":	c #575758",
"<	c #414241",
"[	c #414141",
"}	c #424141",
"|	c #424241",
"1	c #575757",
"2	c #4E4E4E",
"3	c #3C3C3C",
"4	c #4D4D4D",
"5	c #545454",
"6	c #343434",
"7	c #363737",
"8	c #363637",
"9	c #363636",
"0	c #373637",
"a	c #464546",
"b	c #4B4B4B",
"c	c #555555",
"d	c #353535",
"e	c #3D3D3C",
"f	c #3D3C3D",
"g	c #3C3C3D",
"h	c #3C3D3D",
"i	c #3C3D3C",
"j	c #585858",
"k	c #5A5A5A",
"l	c #515151",
"  .+@#         #@+.  ",
"$$%&*.$$$$$$$$$.*&%$$",
"==-;>,=========,>;-==",
"'')!~$'''''''''$~!)''",
"{{]^/;{{{{{{{{{;/^]{{",
"{{]^/;{{{{{{{{{;/^]{{",
"(('=_:<[[}}|[[[1_='((",
"'')!~23333333332~!)''",
"))456(788>90987a654))",
"bb2cdefgghe*ig*fdc2bb",
"4444jdddddddddddj4444",
"^^^^!kkkkkkkkkkk!^^^^",
"lllll55555555555lllll",
"!!!!!!!!!!!!!!!!!!!!!",
"---------------------",
"ccccccccccccccccccccc",
"555555555555555555555",
"!!!!!!!!!!!!!!!!!!!!!",
"bbbbbbbbbbbbbbbbbbbbb",
"[[[[[[[[[[[[[[[[[[[[[",
"~~~~~~~~~~~~~~~~~~~~~"};
