/* XPM */
static char * unshadeufcs_xpm[] = {
"21 21 45 1",
" 	c #5A5A5A",
".	c #5F5F5F",
"+	c #6D6D6D",
"@	c #3C3C3C",
"#	c #636363",
"$	c #484848",
"%	c #4C4C4C",
"&	c #595959",
"*	c #333333",
"=	c #525252",
"-	c #393939",
";	c #2C2C2C",
">	c #444444",
",	c #303030",
"'	c #3D3D3D",
")	c #282828",
"!	c #2D2D2D",
"~	c #262626",
"{	c #2E2E2E",
"]	c #313131",
"^	c #3A3A3A",
"/	c #272727",
"(	c #323232",
"_	c #353535",
":	c #3F3F3F",
"<	c #292929",
"[	c #2D2E2E",
"}	c #2D2D2E",
"|	c #2E2D2E",
"1	c #3A393A",
"2	c #343434",
"3	c #373737",
"4	c #424242",
"5	c #2B2B2B",
"6	c #30302F",
"7	c #302F30",
"8	c #2F2F30",
"9	c #2F3030",
"0	c #2F302F",
"a	c #363636",
"b	c #383838",
"c	c #3B3B3B",
"d	c #464646",
"e	c #3E3E3E",
"f	c #191919",
"  .+@#         #@+.  ",
"$$%&*=$$$$$$$$$=*&%$$",
"--@$;>--------->;$@--",
",,*')@,,,,,,,,,@)'*,,",
"!!,-~-!!!!!!!!!-~-,!!",
"!!,-~-!!!!!!!!!-~-,!!",
"{{]^/^{{{{{{{{{^/^]{{",
",,*')@,,,,,,,,,@)'*,,",
"((_:<^[}}{!|!}[1<:_((",
"22345678896,08,754322",
"aaaa>55555555555>aaaa",
"bbbbcdddddddddddcbbbb",
"^^^^^'''''''''''^^^^^",
"@@@@@@@@@@@@@@@@@@@@@",
"'''''''''''''''''''''",
":::::::::::::::::::::",
"eeeeeeeeeeeeeeeeeeeee",
"@@@@@@@@@@@@@@@@@@@@@",
"222222222222222222222",
")))))))))))))))))))))",
"fffffffffffffffffffff"};
