/* XPM */
static char * btfcs_xpm[] = {
"21 21 190 2",
"  	c #5F5F5F",
". 	c #43413F",
"+ 	c #42413F",
"@ 	c #413F3E",
"# 	c #403E3C",
"$ 	c #3F3D3B",
"% 	c #42403E",
"& 	c #3D3B39",
"* 	c #464442",
"= 	c #4A4745",
"- 	c #403F3E",
"; 	c #3F3E3D",
"> 	c #3B3A39",
", 	c #3C3B3A",
"' 	c #474645",
") 	c #3E3D3C",
"! 	c #393837",
"~ 	c #434241",
"{ 	c #464544",
"] 	c #363535",
"^ 	c #21211E",
"/ 	c #151A0E",
"( 	c #151B06",
"_ 	c #181C11",
": 	c #242521",
"< 	c #383736",
"[ 	c #3D3C3B",
"} 	c #454443",
"| 	c #3A3A39",
"1 	c #1A1B17",
"2 	c #131A05",
"3 	c #283907",
"4 	c #456405",
"5 	c #5A8304",
"6 	c #456508",
"7 	c #2C3D0D",
"8 	c #1C2210",
"9 	c #242520",
"0 	c #3D3C3C",
"a 	c #3A3938",
"b 	c #444342",
"c 	c #353534",
"d 	c #11140C",
"e 	c #29390B",
"f 	c #567E07",
"g 	c #7EB800",
"h 	c #88C800",
"i 	c #8ACB00",
"j 	c #84C200",
"k 	c #78B000",
"l 	c #567E0C",
"m 	c #314219",
"n 	c #22251D",
"o 	c #3A3B39",
"p 	c #3B3A37",
"q 	c #373633",
"r 	c #43423F",
"s 	c #1C1F18",
"t 	c #324611",
"u 	c #70A402",
"v 	c #85C300",
"w 	c #8DCE00",
"x 	c #8CCD00",
"y 	c #89C900",
"z 	c #86C500",
"A 	c #84C100",
"B 	c #7AB300",
"C 	c #689903",
"D 	c #3D5022",
"E 	c #2C2F2B",
"F 	c #393735",
"G 	c #383634",
"H 	c #32302E",
"I 	c #283218",
"J 	c #618E09",
"K 	c #81BD00",
"L 	c #82BF00",
"M 	c #7EB900",
"N 	c #7CB500",
"O 	c #79B100",
"P 	c #77AF00",
"Q 	c #71A500",
"R 	c #5D890E",
"S 	c #38422E",
"T 	c #3A3A38",
"U 	c #373533",
"V 	c #3D3A38",
"W 	c #413F3D",
"X 	c #2B2E27",
"Y 	c #41591B",
"Z 	c #72A700",
"` 	c #7CB600",
" .	c #75AB00",
"..	c #73A900",
"+.	c #6EA100",
"@.	c #6B9D00",
"#.	c #689900",
"$.	c #628F00",
"%.	c #4A642E",
"&.	c #3C3E39",
"*.	c #353332",
"=.	c #403E3B",
"-.	c #2E3529",
";.	c #527713",
">.	c #6DA100",
",.	c #6FA300",
"'.	c #6C9F00",
").	c #6A9B00",
"!.	c #649300",
"~.	c #639100",
"{.	c #608D00",
"].	c #5D8900",
"^.	c #5C8700",
"/.	c #557A1C",
"(.	c #434840",
"_.	c #343332",
":.	c #393838",
"<.	c #3E3D3B",
"[.	c #363832",
"}.	c #486129",
"|.	c #629000",
"1.	c #669500",
"2.	c #5F8B00",
"3.	c #4D6733",
"4.	c #474A44",
"5.	c #333231",
"6.	c #393A38",
"7.	c #414B39",
"8.	c #5A8513",
"9.	c #679700",
"0.	c #5C880F",
"a.	c #515A4F",
"b.	c #444442",
"c.	c #343330",
"d.	c #31302D",
"e.	c #414340",
"f.	c #4B5F3A",
"g.	c #618F04",
"h.	c #6DA000",
"i.	c #74AA00",
"j.	c #7DB700",
"k.	c #7DB800",
"l.	c #689A03",
"m.	c #506443",
"n.	c #525451",
"o.	c #343230",
"p.	c #312F2D",
"q.	c #3A3836",
"r.	c #4B4E4B",
"s.	c #4E5E45",
"t.	c #577F19",
"u.	c #70A500",
"v.	c #7BB400",
"w.	c #81BC00",
"x.	c #80BA00",
"y.	c #76AD00",
"z.	c #577F16",
"A.	c #54644F",
"B.	c #5B5E5C",
"C.	c #434240",
"D.	c #33312F",
"E.	c #2E2C2A",
"F.	c #3D3B3A",
"G.	c #4C4E4C",
"H.	c #575E57",
"I.	c #506346",
"J.	c #507223",
"K.	c #59830C",
"L.	c #507122",
"M.	c #526549",
"N.	c #606762",
"O.	c #565856",
"P.	c #403E3D",
"Q.	c #2E2B29",
"R.	c #363432",
"S.	c #41403E",
"T.	c #4F514D",
"U.	c #5A5E59",
"V.	c #606761",
"W.	c #5C605D",
"X.	c #535452",
"Y.	c #302F2E",
"Z.	c #2F2E2D",
"`.	c #2C2B2A",
" +	c #2D2C2B",
".+	c #363534",
"++	c #2E2D2C",
"@+	c #2C2C2B",
"#+	c #302E2D",
"$+	c #353535",
"                                          ",
". . . . . . + @ # $ $ $ # @ + . . . . . . ",
"% % % % @ # & & # * = * # & & # @ % % % % ",
"- - - ; > , ' ' ' ' ' ' ' ' ' , > ; - - - ",
"; ; ) ! ~ { { ] ^ / ( _ : < { { ~ ! ) ; ; ",
") [ < } } | 1 2 3 4 5 6 7 8 9 0 } } < [ ) ",
"[ a [ b c d e f g h i j k l m n o b [ a [ ",
"p q r r s t u v w x y z A B C D E r r q p ",
"F G % H I J K v L K M N O P Q R S T % G F ",
"U V W X Y Z ` B P  ...Q +.@.#.$.%.&.W V U ",
"*.=.=.-.;.>.Z ,.'.).#.!.~.{.].^./.(.=.=.*.",
"_.:.<.[.}.|.1.~.$.2.2.$.!.1.).!.3.4.<.:._.",
"5.5.> 6.7.8.{.!.9.).'.+.Q  .Z 0.a.b.> 5.5.",
"c.d.p p e.f.g.h.i.P B j.k.O l.m.n.p p d.c.",
"o.p.o.q.<.r.s.t.u.v.w.x.y.z.A.B.C.q.o.p.o.",
"D.H E.F F F.G.H.I.J.K.L.M.N.O.P.F F E.H D.",
"H H p.Q.R.G G S.T.U.V.W.X.C.G G R.Q.p.H H ",
"Y.Y.Y.Z.`. +.+.+.+.+.+.+.+.+.+ +`.Z.Y.Y.Y.",
"Y.Y.Y.Y.Y.++`.@+#+5..+5.#+@+`.++Y.Y.Y.Y.Y.",
"Z.Z.Z.Z.Z.Z.Z.++ +`.`.`. +++Z.Z.Z.Z.Z.Z.Z.",
"$+$+$+$+$+$+$+$+$+$+$+$+$+$+$+$+$+$+$+$+$+"};
