/* XPM */
static char * btpr_xpm[] = {
"21 21 179 2",
"  	c #5F5F5F",
". 	c #43413F",
"+ 	c #42413F",
"@ 	c #413F3E",
"# 	c #403E3C",
"$ 	c #3F3D3B",
"% 	c #42403E",
"& 	c #3D3B39",
"* 	c #464442",
"= 	c #4A4745",
"- 	c #403F3E",
"; 	c #3F3E3D",
"> 	c #3B3A39",
", 	c #3C3B3A",
"' 	c #474645",
") 	c #3E3D3C",
"! 	c #393837",
"~ 	c #434241",
"{ 	c #464544",
"] 	c #363535",
"^ 	c #1F1E1E",
"/ 	c #0E0E0E",
"( 	c #070606",
"_ 	c #111111",
": 	c #222221",
"< 	c #383736",
"[ 	c #3D3C3B",
"} 	c #454443",
"| 	c #3A3A39",
"1 	c #171717",
"2 	c #050505",
"3 	c #060707",
"4 	c #0A0C05",
"5 	c #0E1204",
"6 	c #0D1008",
"7 	c #0E0E0D",
"8 	c #100F10",
"9 	c #222120",
"0 	c #3D3C3C",
"a 	c #3A3938",
"b 	c #444342",
"c 	c #353434",
"d 	c #0C0C0C",
"e 	c #0B0B0B",
"f 	c #0F1307",
"g 	c #141E00",
"h 	c #172200",
"i 	c #1A2600",
"j 	c #1D2A00",
"k 	c #1E2C00",
"l 	c #1C240C",
"m 	c #191B19",
"n 	c #1E1E1D",
"o 	c #3B3A37",
"p 	c #373633",
"q 	c #43423F",
"r 	c #191918",
"s 	c #121311",
"t 	c #1A2602",
"u 	c #1F2E00",
"v 	c #223200",
"w 	c #253600",
"x 	c #283A00",
"y 	c #293C00",
"z 	c #2C4000",
"A 	c #2D4103",
"B 	c #252622",
"C 	c #2A2A2B",
"D 	c #393735",
"E 	c #383634",
"F 	c #312F2E",
"G 	c #181818",
"H 	c #212D09",
"I 	c #263800",
"J 	c #2D4200",
"K 	c #304600",
"L 	c #324A00",
"M 	c #354E00",
"N 	c #375000",
"O 	c #395400",
"P 	c #374A0E",
"Q 	c #2E2E2E",
"R 	c #373533",
"S 	c #3D3A38",
"T 	c #413F3D",
"U 	c #282827",
"V 	c #23251B",
"W 	c #2E4400",
"X 	c #314800",
"Y 	c #344C00",
"Z 	c #3B5600",
"` 	c #3D5A00",
" .	c #405E00",
"..	c #436200",
"+.	c #466600",
"@.	c #476800",
"#.	c #393E2E",
"$.	c #3A3939",
"%.	c #353332",
"&.	c #403E3B",
"*.	c #282929",
"=.	c #313E13",
"-.	c #3C5800",
";.	c #3F5C00",
">.	c #426000",
",.	c #446400",
"'.	c #4A6C00",
").	c #4B6E00",
"!.	c #4E7200",
"~.	c #517600",
"{.	c #45581C",
"].	c #404040",
"^.	c #343332",
"/.	c #393838",
"(.	c #3E3D3B",
"_.	c #333332",
":.	c #343929",
"<.	c #486A00",
"[.	c #4C7000",
"}.	c #4F7400",
"|.	c #404733",
"1.	c #464644",
"2.	c #333231",
"3.	c #393938",
"4.	c #393939",
"5.	c #486113",
"6.	c #385200",
"7.	c #394D0F",
"8.	c #4F4E4F",
"9.	c #343330",
"0.	c #31302D",
"a.	c #40433A",
"b.	c #3F5A04",
"c.	c #2C3F03",
"d.	c #4A4C43",
"e.	c #525151",
"f.	c #343230",
"g.	c #312F2D",
"h.	c #3A3836",
"i.	c #3E3C3B",
"j.	c #4A4A4B",
"k.	c #484945",
"l.	c #394719",
"m.	c #233400",
"n.	c #334016",
"o.	c #52534F",
"p.	c #5B5B5C",
"q.	c #434240",
"r.	c #33312F",
"s.	c #32302E",
"t.	c #2E2C2A",
"u.	c #3D3B3A",
"v.	c #4C4C4C",
"w.	c #575757",
"x.	c #4B4E46",
"y.	c #394323",
"z.	c #29360C",
"A.	c #384222",
"B.	c #4F5249",
"C.	c #626262",
"D.	c #565656",
"E.	c #403E3D",
"F.	c #2E2B29",
"G.	c #363432",
"H.	c #41403E",
"I.	c #4F4F4D",
"J.	c #5A5A59",
"K.	c #626261",
"L.	c #5D5C5D",
"M.	c #535352",
"N.	c #302F2E",
"O.	c #2F2E2D",
"P.	c #2C2B2A",
"Q.	c #2D2C2B",
"R.	c #363534",
"S.	c #2E2D2C",
"T.	c #2C2C2B",
"U.	c #302E2D",
"V.	c #353535",
"                                          ",
". . . . . . + @ # $ $ $ # @ + . . . . . . ",
"% % % % @ # & & # * = * # & & # @ % % % % ",
"- - - ; > , ' ' ' ' ' ' ' ' ' , > ; - - - ",
"; ; ) ! ~ { { ] ^ / ( _ : < { { ~ ! ) ; ; ",
") [ < } } | 1 2 3 4 5 6 7 8 9 0 } } < [ ) ",
"[ a [ b c d e f g h i j k l m n | b [ a [ ",
"o p q q r s t k u v w x y z A B C q q p o ",
"D E % F G H I y z J K L M N O P Q a % E D ",
"R S T U V W X Y N O Z `  ...+.@.#.$.T S R ",
"%.&.&.*.=.Z -.;.>.,.+.'.).!.~.~.{.].&.&.%.",
"^./.(._.:.+.<.).[.}.}.[.'.<.,...|.1.(./.^.",
"2.2.> 3.4.5.[.'.@.,.>. .` O 6.7.8.b > 2.2.",
"9.0.o o ].a.b.-.O N Y X K J c.d.e.o o 0.9.",
"f.g.f.h.i.j.k.l.z y I m.v n.o.p.q.h.f.g.f.",
"r.s.t.D D u.v.w.x.y.z.A.B.C.D.E.D D t.s.r.",
"s.s.g.F.G.E E H.I.J.K.L.M.q.E E G.F.g.s.s.",
"N.N.N.O.P.Q.R.R.R.R.R.R.R.R.R.Q.P.O.N.N.N.",
"N.N.N.N.N.S.P.T.U.2.R.2.U.T.P.S.N.N.N.N.N.",
"O.O.O.O.O.O.O.S.Q.P.P.P.Q.S.O.O.O.O.O.O.O.",
"V.V.V.V.V.V.V.V.V.V.V.V.V.V.V.V.V.V.V.V.V."};
