/* XPM */
static char * btufcs_xpm[] = {
"21 21 174 2",
"  	c #494847",
". 	c #32302F",
"+ 	c #312F2E",
"@ 	c #302E2D",
"# 	c #2F2D2C",
"$ 	c #2D2B2A",
"% 	c #2D2C2B",
"& 	c #312E2D",
"* 	c #343231",
"= 	c #373534",
"- 	c #2F2F2E",
"; 	c #2E2E2D",
"> 	c #2B2B2A",
", 	c #2C2C2B",
"' 	c #353534",
") 	c #2F2E2D",
"! 	c #2E2D2C",
"~ 	c #2A2928",
"{ 	c #333231",
"] 	c #353433",
"^ 	c #292827",
"/ 	c #171716",
"( 	c #0B0B0A",
"_ 	c #060505",
": 	c #0E0E0E",
"< 	c #1B1A1A",
"[ 	c #2B2A29",
"} 	c #292928",
"| 	c #343332",
"1 	c #2C2B2A",
"2 	c #121211",
"3 	c #050505",
"4 	c #060707",
"5 	c #090908",
"6 	c #0B0B0B",
"7 	c #0C0C0C",
"8 	c #0E0D0E",
"9 	c #100F10",
"0 	c #1C1B1B",
"a 	c #2D2C2C",
"b 	c #2A2A2A",
"c 	c #2C2B2B",
"d 	c #333232",
"e 	c #282828",
"f 	c #0B0B0C",
"g 	c #0D0D0D",
"h 	c #0F0F0F",
"i 	c #101111",
"j 	c #131212",
"k 	c #151415",
"l 	c #161616",
"m 	c #181818",
"n 	c #191A1A",
"o 	c #1D1D1C",
"p 	c #2E2D2D",
"q 	c #2B2B29",
"r 	c #282827",
"s 	c #32322F",
"t 	c #121212",
"u 	c #141413",
"v 	c #161515",
"w 	c #171717",
"x 	c #191919",
"y 	c #1B1B1B",
"z 	c #1D1D1D",
"A 	c #1E1E1E",
"B 	c #202020",
"C 	c #222222",
"D 	c #242424",
"E 	c #272728",
"F 	c #322F2E",
"G 	c #272524",
"H 	c #1A1A1B",
"I 	c #1C1B1C",
"J 	c #1D1E1E",
"K 	c #201F20",
"L 	c #212121",
"M 	c #232323",
"N 	c #252525",
"O 	c #272726",
"P 	c #2C2C2C",
"Q 	c #2E2E2E",
"R 	c #312F2F",
"S 	c #292826",
"T 	c #2D2C2A",
"U 	c #302F2D",
"V 	c #242323",
"W 	c #212020",
"X 	c #262626",
"Y 	c #272828",
"Z 	c #29292A",
"` 	c #2B2B2B",
" .	c #2D2D2D",
"..	c #2E2F2F",
"+.	c #313130",
"@.	c #323233",
"#.	c #343434",
"$.	c #363636",
"%.	c #353535",
"&.	c #272625",
"*.	c #2F2E2C",
"=.	c #272827",
"-.	c #292828",
";.	c #30302F",
">.	c #323231",
",.	c #333333",
"'.	c #363535",
").	c #373737",
"!.	c #393939",
"~.	c #3A3B3A",
"{.	c #3A3A3A",
"].	c #3F3F3E",
"^.	c #272624",
"/.	c #2F2E2E",
"(.	c #313131",
"_.	c #383838",
":.	c #353434",
"<.	c #323232",
"[.	c #303031",
"}.	c #3C3D3D",
"|.	c #414140",
"1.	c #262625",
"2.	c #303030",
"3.	c #393A3A",
"4.	c #383737",
"5.	c #2E2F2E",
"6.	c #2C2D2C",
"7.	c #282829",
"8.	c #2D2E2D",
"9.	c #4F4E4F",
"0.	c #3B3B3A",
"a.	c #262623",
"b.	c #242421",
"c.	c #2C2C29",
"d.	c #3D3D3D",
"e.	c #2F2F2F",
"f.	c #222223",
"g.	c #202021",
"h.	c #484748",
"i.	c #252322",
"j.	c #2C2A29",
"k.	c #4A4A4A",
"l.	c #474747",
"m.	c #302F30",
"n.	c #1C1C1C",
"o.	c #1A1A1A",
"p.	c #181819",
"q.	c #515151",
"r.	c #5B5B5C",
"s.	c #393736",
"t.	c #262423",
"u.	c #222120",
"v.	c #2B2928",
"w.	c #31302F",
"x.	c #484848",
"y.	c #575757",
"z.	c #4E4E4D",
"A.	c #626262",
"B.	c #525152",
"C.	c #343232",
"D.	c #252422",
"E.	c #242321",
"F.	c #21201E",
"G.	c #292825",
"H.	c #2A2927",
"I.	c #363634",
"J.	c #494948",
"K.	c #626160",
"L.	c #5A5A5A",
"M.	c #4D4D4C",
"N.	c #393836",
"O.	c #242322",
"P.	c #232221",
"Q.	c #21201F",
"                                          ",
". . . . . . . + @ # # # @ + . . . . . . . ",
"+ + + + + # $ % & * = * & % $ # + + + + + ",
"- - - ; > , ' ' ' ' ' ' ' ' ' , > ; - - - ",
") ) ! ~ { ] ] ^ / ( _ : < [ ] ] { ~ ! ) ) ",
"! % } | | 1 2 3 4 5 6 7 8 9 0 ) | | } % ! ",
"a b c d e f 6 g h i j k l m n o p d c b a ",
"q r s s l t u v w x y z A B C D E s s r q ",
"~ ~ F G m H I J K L M N O e b P Q R F ~ ~ ",
"S T U V W C D X Y Z `  ...+.@.#.$.%.U T S ",
"&.*.*.=.-.> P Q ;.>.,.'.).!.~.~.{.].*.*.^.",
"&.[ ! /.(.,.' )._.{.{._.$.:.<.[.}.|.! [ &.",
"1.1., 2.!.3.4.'.#.<.2.5.6.b 7.8.9.0., 1.1.",
"a.b.c.c.d.].e.P b e X D f.W g.h.9.c.c.b.a.",
"G i.G j.{ k.l.m.B A n.o.p.` q.r.s.j.G i.G ",
"t.t.u.v.v.w.x.y.k.,.L <.z.A.B.C.v.v.u.t.t.",
"D.D.E.F.G.H.H.I.J.y.K.L.M.N.H.H.G.F.E.D.D.",
"O.O.O.P.Q.u.^ ^ ^ ^ ^ ^ ^ ^ ^ u.Q.P.O.O.O.",
"O.O.O.O.O.P.Q.Q.O.&.^ &.O.Q.Q.P.O.O.O.O.O.",
"P.P.P.P.P.P.P.u.u.Q.Q.Q.u.u.P.P.P.P.P.P.P.",
"1 1 1 1 1 1 1 1 1 1 1 1 1 1 1 1 1 1 1 1 1 "};
