/* XPM */
static char * stuckufcs_xpm[] = {
"21 21 177 2",
"  	c #494847",
". 	c #32302F",
"+ 	c #312F2E",
"@ 	c #302E2D",
"# 	c #2F2D2C",
"$ 	c #2D2B2A",
"% 	c #2D2C2B",
"& 	c #312E2D",
"* 	c #343231",
"= 	c #373534",
"- 	c #2F2F2E",
"; 	c #2E2E2D",
"> 	c #2B2B2A",
", 	c #2C2C2B",
"' 	c #353534",
") 	c #2F2E2D",
"! 	c #2E2D2C",
"~ 	c #2A2928",
"{ 	c #333231",
"] 	c #353433",
"^ 	c #292827",
"/ 	c #171716",
"( 	c #0B0B0A",
"_ 	c #060505",
": 	c #0E0E0E",
"< 	c #1B1A1A",
"[ 	c #2B2A29",
"} 	c #292928",
"| 	c #343332",
"1 	c #2C2B2A",
"2 	c #121211",
"3 	c #050505",
"4 	c #060707",
"5 	c #0A0C05",
"6 	c #0E1204",
"7 	c #0D1008",
"8 	c #0E0E0D",
"9 	c #100F10",
"0 	c #1C1B1B",
"a 	c #2D2C2C",
"b 	c #2A2A2A",
"c 	c #2C2B2B",
"d 	c #333232",
"e 	c #282828",
"f 	c #0B0B0C",
"g 	c #0B0B0B",
"h 	c #0F1307",
"i 	c #141E00",
"j 	c #172200",
"k 	c #1A2600",
"l 	c #1D2A00",
"m 	c #1E2C00",
"n 	c #1C240C",
"o 	c #191B19",
"p 	c #1D1D1C",
"q 	c #2E2D2D",
"r 	c #2B2B29",
"s 	c #282827",
"t 	c #32322F",
"u 	c #161616",
"v 	c #121311",
"w 	c #1A2602",
"x 	c #1F2E00",
"y 	c #223200",
"z 	c #253600",
"A 	c #283A00",
"B 	c #293C00",
"C 	c #2C4000",
"D 	c #2D4103",
"E 	c #252622",
"F 	c #272728",
"G 	c #322F2E",
"H 	c #272524",
"I 	c #181818",
"J 	c #212D09",
"K 	c #263800",
"L 	c #2D4200",
"M 	c #304600",
"N 	c #324A00",
"O 	c #354E00",
"P 	c #375000",
"Q 	c #395400",
"R 	c #374A0E",
"S 	c #2E2E2E",
"T 	c #312F2F",
"U 	c #292826",
"V 	c #2D2C2A",
"W 	c #302F2D",
"X 	c #242323",
"Y 	c #23251B",
"Z 	c #2E4400",
"` 	c #314800",
" .	c #344C00",
"..	c #3B5600",
"+.	c #3D5A00",
"@.	c #405E00",
"#.	c #436200",
"$.	c #466600",
"%.	c #476800",
"&.	c #393E2E",
"*.	c #353535",
"=.	c #272625",
"-.	c #2F2E2C",
";.	c #272827",
">.	c #313E13",
",.	c #3C5800",
"'.	c #3F5C00",
").	c #426000",
"!.	c #446400",
"~.	c #4A6C00",
"{.	c #4B6E00",
"].	c #4E7200",
"^.	c #517600",
"/.	c #45581C",
"(.	c #3F3F3E",
"_.	c #272624",
":.	c #2F2E2E",
"<.	c #343929",
"[.	c #486A00",
"}.	c #4C7000",
"|.	c #4F7400",
"1.	c #404733",
"2.	c #414140",
"3.	c #262625",
"4.	c #303030",
"5.	c #393939",
"6.	c #486113",
"7.	c #385200",
"8.	c #394D0F",
"9.	c #4F4E4F",
"0.	c #3B3B3A",
"a.	c #262623",
"b.	c #242421",
"c.	c #2C2C29",
"d.	c #3D3D3D",
"e.	c #40433A",
"f.	c #3F5A04",
"g.	c #2C3F03",
"h.	c #4A4C43",
"i.	c #252322",
"j.	c #2C2A29",
"k.	c #4A4A4A",
"l.	c #484945",
"m.	c #394719",
"n.	c #233400",
"o.	c #334016",
"p.	c #52534F",
"q.	c #5B5B5C",
"r.	c #393736",
"s.	c #262423",
"t.	c #222120",
"u.	c #2B2928",
"v.	c #31302F",
"w.	c #484848",
"x.	c #575757",
"y.	c #4B4E46",
"z.	c #394323",
"A.	c #29360C",
"B.	c #384222",
"C.	c #4F5249",
"D.	c #626262",
"E.	c #525152",
"F.	c #343232",
"G.	c #252422",
"H.	c #242321",
"I.	c #21201E",
"J.	c #292825",
"K.	c #2A2927",
"L.	c #363634",
"M.	c #494948",
"N.	c #626160",
"O.	c #5A5A5A",
"P.	c #4D4D4C",
"Q.	c #393836",
"R.	c #242322",
"S.	c #232221",
"T.	c #21201F",
"                                          ",
". . . . . . . + @ # # # @ + . . . . . . . ",
"+ + + + + # $ % & * = * & % $ # + + + + + ",
"- - - ; > , ' ' ' ' ' ' ' ' ' , > ; - - - ",
") ) ! ~ { ] ] ^ / ( _ : < [ ] ] { ~ ! ) ) ",
"! % } | | 1 2 3 4 5 6 7 8 9 0 ) | | } % ! ",
"a b c d e f g h i j k l m n o p q d c b a ",
"r s t t u v w m x y z A B C D E F t t s r ",
"~ ~ G H I J K B C L M N O P Q R S T G ~ ~ ",
"U V W X Y Z `  .P Q ..+.@.#.$.%.&.*.W V U ",
"=.-.-.;.>...,.'.).!.$.~.{.].^.^./.(.-.-._.",
"=.[ ! :.<.$.[.{.}.|.|.}.~.[.!.#.1.2.! [ =.",
"3.3., 4.5.6.}.~.%.!.).@.+.Q 7.8.9.0., 3.3.",
"a.b.c.c.d.e.f.,.Q P  .` M L g.h.9.c.c.b.a.",
"H i.H j.{ k.l.m.C B K n.y o.p.q.r.j.H i.H ",
"s.s.t.u.u.v.w.x.y.z.A.B.C.D.E.F.u.u.t.s.s.",
"G.G.H.I.J.K.K.L.M.x.N.O.P.Q.K.K.J.I.H.G.G.",
"R.R.R.S.T.t.^ ^ ^ ^ ^ ^ ^ ^ ^ t.T.S.R.R.R.",
"R.R.R.R.R.S.T.T.R.=.^ =.R.T.T.S.R.R.R.R.R.",
"S.S.S.S.S.S.S.t.t.T.T.T.t.t.S.S.S.S.S.S.S.",
"1 1 1 1 1 1 1 1 1 1 1 1 1 1 1 1 1 1 1 1 1 "};
